<svg fill="#008000" xmlns="http://www.w3.org/2000/svg"  viewBox="0 0 50 50" width="50px" height="50px"><path d="M 12 0 C 5.4375 0 3 2.167969 3 8 L 3 41 C 3 42.359375 3.398438 43.339844 4 44.0625 L 4 47 C 4 48.652344 5.347656 50 7 50 L 11 50 C 12.652344 50 14 48.652344 14 47 L 14 46 L 36 46 L 36 47 C 36 48.652344 37.347656 50 39 50 L 43 50 C 44.652344 50 46 48.652344 46 47 L 46 44.0625 C 46.601563 43.339844 47 42.359375 47 41 L 47 9 C 47 4.644531 46.460938 0 40 0 Z M 15 4 L 36 4 C 36.554688 4 37 4.449219 37 5 L 37 7 C 37 7.550781 36.554688 8 36 8 L 15 8 C 14.449219 8 14 7.550781 14 7 L 14 5 C 14 4.449219 14.449219 4 15 4 Z M 11 11 L 39 11 C 41 11 42 12 42 14 L 42 26 C 42 28 40.046875 28.9375 39 28.9375 L 11 29 C 9 29 8 28 8 26 L 8 14 C 8 12 9 11 11 11 Z M 2 12 C 0.898438 12 0 12.898438 0 14 L 0 22 C 0 23.101563 0.898438 24 2 24 Z M 48 12 L 48 24 C 49.105469 24 50 23.101563 50 22 L 50 14 C 50 12.898438 49.105469 12 48 12 Z M 11.5 34 C 13.433594 34 15 35.566406 15 37.5 C 15 39.433594 13.433594 41 11.5 41 C 9.566406 41 8 39.433594 8 37.5 C 8 35.566406 9.566406 34 11.5 34 Z M 38.5 34 C 40.433594 34 42 35.566406 42 37.5 C 42 39.433594 40.433594 41 38.5 41 C 36.566406 41 35 39.433594 35 37.5 C 35 35.566406 36.566406 34 38.5 34 Z"/></svg>