<svg fill="#008000" xmlns="http://www.w3.org/2000/svg"  viewBox="0 0 50 50" width="50px" height="50px"><path d="M 29 1.9375 C 28.824219 1.9375 28.648438 1.992188 28.5 2.09375 L 10.5 11.90625 C 10.199219 12.105469 10 12.414063 10 12.8125 L 10 14 C 10 14.601563 10.398438 15 11 15 L 12.5 15 C 12.699219 15 12.898438 15.007813 13 14.90625 L 29 6 L 45 14.90625 C 45.199219 15.007813 45.300781 15 45.5 15 L 47 15 C 47.601563 15 48 14.601563 48 14 L 48 12.8125 C 48 12.414063 47.800781 12.105469 47.5 11.90625 L 29.5 2.09375 C 29.351563 1.992188 29.175781 1.9375 29 1.9375 Z M 29 8.3125 L 14 16.59375 C 13.699219 16.792969 13.398438 16.90625 13 16.90625 L 13 20.8125 L 17.59375 18.3125 C 17.992188 18.113281 18.5 18 19 18 C 19.5 18 20.007813 18.105469 20.40625 18.40625 L 36.40625 27.1875 C 37.40625 27.6875 38 28.710938 38 29.8125 L 38 31 C 38 32.699219 36.699219 34 35 34 L 35 44 L 44 44 C 44.601563 44 45 43.601563 45 43 L 45 16.90625 C 44.699219 16.90625 44.300781 16.792969 44 16.59375 Z M 19 19.9375 C 18.824219 19.9375 18.648438 19.992188 18.5 20.09375 L 2.5 28.90625 C 2.199219 29.105469 2 29.414063 2 29.8125 L 2 31 C 2 31.601563 2.398438 32 3 32 L 4.5 32 C 4.699219 32 4.898438 32.007813 5 31.90625 L 19 24 L 33 31.90625 C 33.199219 32.007813 33.300781 32 33.5 32 L 35 32 C 35.601563 32 36 31.601563 36 31 L 36 29.8125 C 36 29.414063 35.800781 29.105469 35.5 28.90625 L 19.5 20.09375 C 19.351563 19.992188 19.175781 19.9375 19 19.9375 Z M 19 26.3125 L 6 33.59375 C 5.699219 33.792969 5.398438 33.90625 5 33.90625 L 5 47 C 5 47.601563 5.398438 48 6 48 L 32 48 C 32.601563 48 33 47.601563 33 47 L 33 33.90625 C 32.699219 33.804688 32.300781 33.792969 32 33.59375 Z"/></svg>